<?xml version="1.0" standalone="no"?>
<!DOCTYPE svg PUBLIC "-//W3C//DTD SVG 20010904//EN"
 "http://www.w3.org/TR/2001/REC-SVG-20010904/DTD/svg10.dtd">
<svg version="1.0" xmlns="http://www.w3.org/2000/svg"
 width="200.000000pt" height="200.000000pt" viewBox="0 0 200.000000 200.000000"
 preserveAspectRatio="xMidYMid meet">
<metadata>
Created by potrace 1.14, written by Peter Selinger 2001-2017
</metadata>
<g transform="translate(0.000000,200.000000) scale(0.100000,-0.100000)"
fill="#000000" stroke="none">
<path d="M802 1969 c-219 -46 -402 -153 -538 -317 -126 -153 -207 -354 -219
-545 -1 -21 -5 -40 -8 -43 -2 -3 -1 -20 3 -39 5 -21 3 -38 -4 -46 -8 -9 -8
-10 2 -5 8 5 12 -4 13 -31 3 -79 6 -99 15 -118 6 -11 10 -27 9 -35 0 -8 3 -18
7 -21 4 -3 9 -17 10 -32 1 -15 5 -27 9 -27 4 0 9 -7 12 -14 4 -10 1 -13 -9 -9
-7 3 -14 0 -14 -7 0 -6 4 -9 8 -6 4 2 14 1 22 -4 12 -8 13 -13 3 -29 -10 -17
-9 -18 10 -13 l22 5 -20 -22 c-11 -12 -14 -21 -8 -19 6 2 19 -6 28 -17 16 -19
16 -18 1 8 -9 15 -13 27 -8 27 14 0 33 -48 21 -56 -7 -4 -7 -10 0 -18 6 -7 7
-16 3 -20 -4 -4 -2 -6 3 -5 29 8 61 -16 56 -44 -1 -4 6 -10 16 -14 9 -4 24
-14 34 -24 15 -15 15 -18 3 -23 -10 -4 -12 -2 -8 6 4 7 3 8 -5 4 -6 -4 -10 -4
-9 1 3 9 -5 13 -23 13 -7 0 0 -9 15 -21 14 -11 29 -18 34 -15 4 2 14 0 22 -6
12 -8 12 -9 -3 -4 -9 3 -17 1 -17 -4 0 -9 14 -14 33 -11 13 2 8 -11 -10 -26
-16 -13 -16 -13 4 -4 15 8 24 8 28 1 4 -6 11 -7 17 -4 7 4 8 2 4 -4 -4 -6 -13
-9 -21 -5 -8 3 -15 1 -15 -4 0 -11 30 -13 45 -4 6 3 3 -1 -7 -10 -16 -16 -16
-17 10 -17 15 0 31 5 35 12 6 7 7 5 4 -5 -3 -9 -1 -22 4 -28 6 -8 5 -8 -3 -1
-15 13 -28 13 -28 0 0 -6 6 -9 13 -8 6 2 11 -3 9 -10 -1 -8 2 -11 7 -8 5 4 12
0 14 -6 3 -7 4 2 3 20 -2 17 0 32 5 32 5 0 9 -10 9 -22 0 -42 3 -57 12 -52 4
3 8 0 8 -5 0 -6 5 -11 12 -11 7 0 5 7 -5 18 -15 17 -15 18 6 19 15 2 18 0 8
-6 -10 -7 -10 -10 -1 -16 7 -4 16 -2 21 6 4 7 11 10 15 6 4 -4 -1 -14 -12 -23
-10 -8 -14 -13 -7 -10 11 6 27 -10 28 -26 0 -3 4 -10 9 -15 5 -5 6 -3 2 5 -4
6 -2 13 3 13 6 1 17 2 24 3 6 1 19 -4 29 -12 11 -9 18 -10 23 -3 3 6 11 11 16
11 6 0 3 -7 -6 -16 -17 -17 -16 -35 2 -41 6 -2 13 4 17 13 5 14 4 15 -9 4 -8
-7 -15 -8 -15 -3 0 5 13 16 28 25 23 14 29 14 29 4 0 -8 -6 -12 -12 -10 -6 3
-12 -2 -12 -11 0 -9 6 -14 14 -11 7 3 26 -8 43 -24 16 -16 30 -24 30 -18 0 6
-8 17 -17 24 -17 13 -17 14 2 8 16 -6 18 -5 8 7 -7 7 -13 17 -13 23 0 5 6 1
14 -9 8 -11 12 -24 9 -29 -3 -5 0 -6 8 -4 8 3 13 10 12 16 -2 6 4 9 13 5 11
-4 12 -8 4 -13 -15 -9 -1 -18 23 -15 9 2 15 -1 11 -6 -3 -5 -10 -7 -15 -4 -5
4 -9 1 -9 -5 0 -7 7 -10 15 -6 8 3 19 -2 24 -12 7 -11 11 -12 11 -4 0 8 5 10
13 5 21 -13 61 -12 84 3 20 13 22 12 16 -3 -4 -10 -2 -14 5 -9 6 3 13 2 17 -3
7 -12 35 -3 35 11 0 6 -6 6 -14 -1 -11 -10 -16 -8 -21 9 -4 12 -4 24 -1 27 3
4 6 -1 6 -10 0 -20 16 -23 23 -4 4 9 6 9 6 -1 1 -7 6 -10 13 -6 6 4 8 3 5 -3
-4 -6 0 -13 8 -17 8 -3 17 0 21 6 4 6 3 8 -3 5 -5 -3 -10 0 -10 8 0 18 13 20
21 3 3 -10 9 -8 19 5 13 16 15 16 21 2 4 -11 2 -14 -6 -9 -7 5 -8 3 -3 -6 5
-8 4 -11 -2 -7 -6 4 -17 -1 -24 -11 -13 -15 -12 -16 4 -3 9 7 17 10 17 5 0 -4
5 -3 12 4 7 7 17 8 29 2 23 -13 49 -2 49 19 -1 14 -2 14 -11 -2 -5 -9 -15 -17
-21 -17 -7 0 -6 5 2 15 9 10 9 15 1 15 -6 0 -11 4 -11 9 0 10 19 9 37 -2 6 -4
15 -3 18 3 5 8 11 7 21 -1 11 -9 18 -8 32 4 12 11 22 13 35 6 14 -8 17 -6 17
12 0 16 4 20 18 14 19 -7 22 -8 40 -6 6 0 12 6 12 12 0 8 -6 7 -17 -2 -14 -12
-14 -10 1 14 21 32 24 33 22 10 0 -11 5 -17 14 -14 8 2 24 3 35 3 15 -1 17 1
5 8 -8 5 -22 5 -34 -1 -19 -9 -20 -9 -4 4 10 8 14 17 10 21 -4 4 0 6 8 4 8 -2
14 3 12 10 -1 8 2 11 7 8 5 -4 11 -1 13 6 3 7 7 5 11 -6 4 -9 3 -15 -2 -12 -5
3 -15 -2 -22 -11 -12 -15 -12 -16 6 -8 11 4 28 8 37 9 9 0 15 4 12 7 -2 4 0
10 6 14 5 3 10 0 10 -7 1 -7 8 -1 16 15 8 15 19 27 24 27 5 0 7 7 4 15 -4 11
-2 13 9 9 9 -3 14 -14 12 -25 -2 -11 0 -17 6 -14 5 4 7 10 4 15 -3 5 -1 11 4
15 6 3 8 12 4 20 -3 10 1 15 12 15 9 0 14 4 10 9 -3 5 0 13 6 16 5 4 8 14 5
22 -3 8 -2 11 3 8 15 -8 8 -55 -9 -65 -8 -5 -10 -10 -4 -10 18 0 37 28 28 41
-5 9 -2 10 11 5 14 -5 16 -4 6 7 -7 9 -8 23 -3 37 l9 24 5 -22 c4 -15 2 -20
-5 -16 -8 5 -8 2 0 -6 7 -8 14 -12 16 -9 3 2 21 26 41 52 20 27 36 43 36 36 0
-7 3 -10 6 -6 3 3 1 13 -4 23 -9 16 -10 16 -16 -3 -7 -21 -28 -25 -43 -9 -4 4
-3 7 2 6 20 -4 35 0 35 11 0 6 -7 8 -16 5 -8 -3 -12 -2 -9 3 3 6 13 10 23 10
24 0 50 6 58 14 4 3 -6 4 -22 2 -16 -2 -23 -2 -16 1 6 3 10 9 7 13 -2 5 8 6
23 5 15 -2 21 -1 15 2 -17 8 -16 20 3 49 9 14 21 22 28 18 17 -11 37 -12 30
-2 -3 5 -9 7 -14 4 -4 -3 -13 1 -19 9 -9 10 -7 17 6 27 9 8 14 9 10 2 -4 -6
-2 -15 4 -19 8 -5 9 -3 4 6 -6 10 -3 12 11 6 12 -4 8 3 -11 19 -16 15 -25 24
-18 21 6 -4 13 -3 16 1 2 5 3 3 1 -3 -1 -6 4 -11 11 -11 10 0 11 7 4 24 -5 13
-5 23 -1 23 4 0 0 5 -8 11 -12 8 -10 9 7 4 29 -8 37 9 19 43 -15 29 -7 52 19
52 5 0 3 -4 -5 -10 -12 -8 -12 -10 3 -16 9 -3 14 -11 11 -16 -4 -6 -10 -5 -15
3 -5 8 -9 9 -9 3 0 -6 8 -18 17 -25 10 -8 14 -9 10 -2 -4 6 -3 15 3 18 8 5 7
11 -1 21 -9 11 -8 14 2 14 11 0 11 2 -1 10 -8 5 -10 10 -3 10 6 0 10 8 9 18
-2 9 2 21 8 25 6 5 2 7 -11 4 -13 -3 -23 -1 -23 4 0 9 14 13 38 10 13 -2 17
15 4 23 -5 3 -8 23 -7 45 1 23 -3 38 -9 37 -6 -2 -7 -1 -3 2 4 2 2 11 -5 20
-10 12 -8 12 14 -2 17 -11 25 -23 21 -34 -4 -14 -3 -15 6 -2 7 10 6 19 -3 30
-13 16 -14 29 -5 45 6 10 -6 55 -15 55 -2 0 -3 -18 -1 -40 1 -22 -2 -37 -6
-34 -5 3 -7 10 -4 15 4 5 0 9 -7 9 -9 0 -9 3 2 10 11 7 12 12 3 21 -9 9 -7 16
9 29 17 13 18 17 5 17 -9 0 -13 -5 -10 -10 3 -6 1 -7 -6 -3 -15 10 -4 26 17
26 14 0 15 2 2 9 -8 6 -17 8 -20 6 -4 -2 -7 2 -7 10 0 11 4 12 13 4 8 -7 14
-6 20 2 4 7 3 10 -2 7 -5 -3 -15 0 -22 8 -8 9 -9 14 -2 14 6 0 4 8 -6 17 -11
12 -13 18 -5 21 9 3 7 10 -5 23 -18 19 -6 27 12 9 7 -7 11 -6 11 4 0 8 -4 13
-8 11 -8 -6 -21 11 -37 49 -12 26 -11 28 5 22 14 -6 13 -2 -4 14 -20 18 -27
33 -21 43 1 1 -13 28 -31 61 -18 32 -27 55 -19 51 7 -3 5 0 -6 9 -10 8 -15 20
-10 27 4 7 3 10 -4 5 -6 -3 -13 3 -17 14 -3 11 -11 20 -17 20 -5 0 -7 7 -4 16
3 8 2 13 -2 11 -4 -3 -13 1 -20 9 -7 8 -10 14 -7 14 13 0 -153 158 -198 189
-229 156 -478 211 -725 160z m1124 -1065 c1 -9 0 -13 -4 -10 -3 4 -7 14 -8 22
-1 9 0 13 4 10 3 -4 7 -14 8 -22z m-6 -29 c5 3 11 1 14 -4 4 -5 -2 -8 -11 -7
-9 2 -18 8 -19 15 -1 6 0 7 3 1 2 -5 9 -8 13 -5z m-6 -58 c4 4 4 0 0 -10 -3
-9 -11 -17 -17 -17 -6 0 -7 3 -4 7 4 3 1 13 -6 22 -10 14 -10 14 4 4 9 -7 19
-10 23 -6z m-24 -118 c0 -6 -4 -7 -10 -4 -5 3 -10 11 -10 16 0 6 5 7 10 4 6
-3 10 -11 10 -16z m-83 -114 c0 -8 -4 -12 -9 -9 -5 3 -6 10 -3 15 9 13 12 11
12 -6z m-25 -47 c-8 -8 -9 -4 -5 13 4 13 8 18 11 10 2 -7 -1 -18 -6 -23z
m-1586 -3 c9 -8 11 -15 6 -15 -5 0 -15 7 -22 15 -7 8 -9 15 -6 15 4 0 14 -7
22 -15z m1493 -132 c-3 -21 2 -34 11 -28 6 4 8 10 5 15 -3 4 2 11 10 14 12 4
13 2 6 -13 -15 -26 -38 -44 -38 -28 0 6 -4 20 -8 30 -4 10 -3 17 4 17 6 0 10
-3 10 -7z m-82 -68 c0 -8 -4 -12 -9 -9 -4 3 -8 9 -8 15 0 5 4 9 8 9 5 0 9 -7
9 -15z m-22 -35 c-3 -5 -12 -10 -18 -10 -7 0 -6 4 3 10 19 12 23 12 15 0z
m-1098 -46 c-3 -3 -12 -4 -19 -1 -8 3 -5 6 6 6 11 1 17 -2 13 -5z m1044 -17
c-10 -9 -11 -8 -5 6 3 10 9 15 12 12 3 -3 0 -11 -7 -18z m-29 -11 c4 3 9 0 14
-7 4 -7 3 -10 -4 -5 -6 3 -13 2 -17 -4 -10 -16 -25 -1 -18 17 5 12 3 14 -7 8
-9 -6 -11 -4 -5 5 6 10 11 10 20 -3 7 -9 14 -14 17 -11z m-913 -32 c3 -4 -2
-4 -11 -1 -10 3 -20 2 -23 -4 -4 -5 -11 -7 -16 -3 -5 3 -7 9 -4 14 6 9 44 5
54 -6z m821 12 c0 -2 -7 -7 -16 -10 -8 -3 -12 -2 -9 4 6 10 25 14 25 6z m-40
-20 c0 -2 -7 -7 -16 -10 -8 -3 -12 -2 -9 4 6 10 25 14 25 6z m-164 -51 c-1 -8
-5 -17 -8 -21 -5 -4 -4 16 1 34 3 9 9 -1 7 -13z m41 -5 c1 -11 -2 -20 -7 -20
-6 0 -7 17 -1 38 3 8 7 -1 8 -18z m50 5 c0 -8 -4 -12 -9 -9 -5 3 -6 10 -3 15
9 13 12 11 12 -6z m-433 -24 c2 -3 -2 -15 -10 -26 -8 -10 -14 -14 -14 -9 0 6
5 15 12 22 9 9 8 12 -7 13 -11 1 -24 1 -28 0 -5 -1 -6 3 -3 8 6 9 43 4 50 -8z
m171 -11 c3 -6 -1 -7 -9 -4 -18 7 -21 14 -7 14 6 0 13 -4 16 -10z m-138 -19
c0 -11 -8 -18 -17 -16 -8 1 -13 6 -10 11 3 5 8 8 13 7 4 -2 7 2 7 7 0 6 2 10
4 10 3 0 4 -8 3 -19z m247 4 c3 -8 1 -15 -4 -15 -6 0 -10 7 -10 15 0 8 2 15 4
15 2 0 6 -7 10 -15z m-204 -10 c-14 -17 -30 -20 -30 -4 0 5 5 7 10 4 6 -3 10
-1 10 4 0 6 5 11 11 11 8 0 8 -5 -1 -15z"/>
<path d="M1867 1379 c7 -7 15 -10 18 -7 3 3 -2 9 -12 12 -14 6 -15 5 -6 -5z"/>
<path d="M1895 1300 c3 -5 8 -10 11 -10 2 0 4 5 4 10 0 6 -5 10 -11 10 -5 0
-7 -4 -4 -10z"/>
<path d="M1875 660 c3 -5 8 -10 11 -10 2 0 4 5 4 10 0 6 -5 10 -11 10 -5 0 -7
-4 -4 -10z"/>
<path d="M1811 536 c-8 -10 -9 -16 -1 -21 5 -3 10 1 10 10 0 10 5 13 12 9 7
-4 8 -3 4 4 -9 15 -11 15 -25 -2z"/>
<path d="M204 485 c8 -8 18 -15 22 -15 3 0 1 7 -6 15 -7 8 -17 15 -22 15 -5 0
-3 -7 6 -15z"/>
<path d="M210 456 c0 -2 7 -7 16 -10 8 -3 12 -2 9 4 -6 10 -25 14 -25 6z"/>
<path d="M584 154 c2 -10 8 -20 14 -22 17 -5 15 13 -2 27 -12 10 -14 9 -12 -5z"/>
<path d="M1320 121 c0 -6 4 -13 10 -16 6 -3 7 1 4 9 -7 18 -14 21 -14 7z"/>
<path d="M690 100 c6 -11 13 -20 16 -20 2 0 0 9 -6 20 -6 11 -13 20 -16 20 -2
0 0 -9 6 -20z"/>
<path d="M1267 97 c-3 -8 3 -14 16 -15 12 0 17 2 12 6 -6 4 -13 11 -16 15 -4
4 -9 2 -12 -6z"/>
<path d="M765 89 c-4 -5 -4 -13 -1 -16 3 -4 6 0 6 8 0 11 2 11 10 -1 6 -9 10
-10 10 -3 0 17 -17 25 -25 12z"/>
<path d="M1206 92 c-2 -4 -1 -14 5 -22 7 -12 9 -10 9 8 0 23 -5 28 -14 14z"/>
<path d="M947 39 c7 -7 15 -10 18 -7 3 3 -2 9 -12 12 -14 6 -15 5 -6 -5z"/>
</g>
</svg>
